<?xml version="1.0" encoding="UTF-8"?>
<svg version="1.1" xmlns="http://www.w3.org/2000/svg" width="1597" height="985">
<path d="M0 0 C0.99 0.33 1.98 0.66 3 1 C4.0563893 97.32490153 5.06564687 193.64949082 5.60960627 289.97884798 C5.62988857 293.54768368 5.65068016 297.11651633 5.67145926 300.68534917 C5.93551952 346.12392323 6.05795021 391.56066074 6 437 C2.79284852 435.7624693 0.29494903 434.67764176 -2.27734375 432.3828125 C-2.86628418 431.86420654 -3.45522461 431.34560059 -4.06201172 430.8112793 C-4.99037842 429.97657104 -4.99037842 429.97657104 -5.9375 429.125 C-7.27172182 427.94614631 -8.60636731 426.76777198 -9.94140625 425.58984375 C-10.95291748 424.69241455 -10.95291748 424.69241455 -11.98486328 423.77685547 C-15.61485558 420.57609415 -19.30689187 417.44803052 -22.99194336 414.31103516 C-24.03964279 413.41594136 -25.0768999 412.50845135 -26.10229492 411.58789062 C-27.99910934 409.93593587 -27.99910934 409.93593587 -30.26356506 408.53012085 C-34.27737254 405.65709324 -36.64195909 403.47460168 -37.82995605 398.58180237 C-38.13916308 394.30959092 -38.17001348 390.11875848 -38.09765625 385.83984375 C-38.1033275 384.24726027 -38.11296239 382.65468654 -38.12632751 381.06214905 C-38.15089601 376.8699348 -38.12198469 372.67975618 -38.08154297 368.48773193 C-38.05029933 364.30358772 -38.06911803 360.11973609 -38.08398438 355.93554688 C-38.10193421 348.99146568 -38.08242301 342.04845057 -38.03672886 335.10452175 C-37.97488771 325.06979671 -37.99147067 315.03486719 -38 305 C-60.01941999 304.94357259 -82.03844128 304.93317125 -104.05789948 304.97665405 C-114.28336802 304.99578891 -124.50843701 305.00020648 -134.73388672 304.96923828 C-143.65275291 304.94226528 -152.57110131 304.94365907 -161.48994875 304.97825909 C-166.20689535 304.99559022 -170.92291542 304.9992988 -175.63981628 304.96896362 C-180.09232706 304.94077889 -184.54320661 304.950919 -188.99563026 304.98873711 C-190.61758928 304.99607158 -192.23967965 304.99016147 -193.86151695 304.96898079 C-206.15706208 304.82007989 -214.41228301 307.87404619 -225 314 C-226.53990384 314.75916049 -228.0864131 315.50572524 -229.6484375 316.21826172 C-230.27129639 316.50603989 -230.89415527 316.79381805 -231.53588867 317.09031677 C-232.14279541 317.36730911 -232.74970215 317.64430145 -233.375 317.9296875 C-234.4100769 318.40541954 -234.4100769 318.40541954 -235.46606445 318.89076233 C-237.64242507 319.88909218 -239.82094024 320.88257698 -242 321.875 C-242.75104004 322.21806183 -243.50208008 322.56112366 -244.27587891 322.9145813 C-275.51885666 337.17295222 -275.51885666 337.17295222 -287 341 C-285.29981122 337.0713152 -282.70963227 333.88389749 -280.0625 330.5625 C-279.57305908 329.94415283 -279.08361816 329.32580566 -278.5793457 328.6887207 C-274.91709331 324.08818107 -271.15687209 319.57863566 -267.33813477 315.10766602 C-263.50418891 310.61597167 -259.74537013 306.06571686 -256 301.5 C-251.81502299 296.39838936 -247.59870157 291.32932171 -243.3125 286.3125 C-239.63304836 282.00220885 -236.09624437 277.60434716 -232.625 273.125 C-228.1680511 267.37824075 -223.48642834 261.86544536 -218.69580078 256.39501953 C-215.5626872 252.81445146 -212.49280585 249.19989734 -209.5 245.5 C-205.38403149 240.41556831 -201.10537281 235.48641797 -196.80566406 230.55786133 C-193.55254742 226.81963917 -190.3673971 223.04064641 -187.25 219.1875 C-183.71808913 214.82417215 -180.01293064 210.6616152 -176.234375 206.51171875 C-173.99865467 203.99848768 -171.86622318 201.42688521 -169.75 198.8125 C-166.12736686 194.33785384 -162.40517674 189.96612402 -158.625 185.625 C-151.14989292 177.03711141 -143.74608072 168.39688562 -136.5625 159.5625 C-132.60723975 154.70156299 -128.54026529 149.9459244 -124.44824219 145.20043945 C-121.34573369 141.59454054 -118.30541477 137.94805175 -115.3125 134.25 C-111.76254679 129.87492253 -108.04436179 125.69450808 -104.25 121.53125 C-101.92137947 118.9115519 -99.70437053 116.2248469 -97.5 113.5 C-93.88967558 109.03723787 -90.11572071 104.77280467 -86.25 100.53125 C-83.92137947 97.9115519 -81.70437053 95.2248469 -79.5 92.5 C-76.5918662 88.9052235 -73.61458668 85.41739372 -70.5 82 C-67.47717579 78.68010514 -64.57487839 75.30235888 -61.75 71.8125 C-58.14529915 67.36147808 -54.44629733 63.00801395 -50.6875 58.6875 C-50.13642578 58.05400635 -49.58535156 57.4205127 -49.01757812 56.76782227 C-47.89837515 55.48168345 -46.77907163 54.19563212 -45.65966797 52.90966797 C-43.01339503 49.86478022 -40.37859533 46.81015575 -37.75 43.75 C-37.24992432 43.16814941 -36.74984863 42.58629883 -36.23461914 41.98681641 C-33.30121618 38.56022932 -30.44437894 35.08412277 -27.625 31.5625 C-23.38681657 26.33026991 -18.80777593 21.46778896 -14.18359375 16.58007812 C-9.17745065 11.26173573 -4.51467047 5.74485846 0 0 Z " fill="#151B23" transform="translate(373,246)"/>
<path d="M0 0 C1.62843435 -0.00644759 3.2568676 -0.0131773 4.88529968 -0.02017212 C8.28155193 -0.03207048 11.67770303 -0.0358606 15.07397461 -0.03466797 C19.38380111 -0.034465 23.69296665 -0.06177781 28.00263691 -0.09621239 C31.36167771 -0.11866146 34.7205638 -0.12250009 38.07967186 -0.12144852 C39.66659003 -0.12377709 41.25351433 -0.13244167 42.84035683 -0.14811325 C60.49860003 -0.30622373 77.57772193 3.07265754 90.88671875 15.6484375 C95.03863088 20.11972748 98.10447355 24.95867523 100.94921875 30.3359375 C101.35140625 31.07328125 101.75359375 31.810625 102.16796875 32.5703125 C112.75558824 52.68678954 103.30947516 80.45997348 98.07324219 100.93847656 C95.52771805 110.90365069 93.19203065 120.89862502 91.02807617 130.95483398 C89.18757313 139.46382629 87.09017674 147.89901083 84.94921875 156.3359375 C79.01964854 179.79649143 79.01964854 179.79649143 73.53149414 203.36352539 C72.40262034 208.40988594 71.1573159 213.39438445 69.75 218.37109375 C67.03440901 228.42540381 64.74851457 238.60952853 62.5390625 248.78515625 C58.88107956 265.6303214 54.88671536 282.3821443 49.87109375 298.8828125 C49.11678101 301.70828903 48.55295446 304.43328314 48.0546875 307.30859375 C46.78575957 314.54111298 45.04171886 321.65333232 43.26171875 328.7734375 C43.08592285 329.477034 42.91012695 330.18063049 42.72900391 330.9055481 C32.09081127 373.20831151 13.94123931 405.2059034 -24.05078125 428.3359375 C-30.62145083 432.17967078 -37.31909037 435.78382087 -44.05078125 439.3359375 C-44.77475098 439.72056152 -45.4987207 440.10518555 -46.24462891 440.50146484 C-55.9210476 445.61168831 -65.74952669 449.66773866 -76.05078125 453.3359375 C-77.35360687 453.82746407 -78.65567464 454.32100345 -79.95703125 454.81640625 C-83.52000682 456.15807643 -87.11136671 457.38698572 -90.72900391 458.57275391 C-92.28154043 459.08308295 -93.83073971 459.60367466 -95.37646484 460.13427734 C-105.47110487 463.56699488 -115.02529108 465.90679905 -125.73828125 465.9609375 C-126.62153076 465.9714917 -127.50478027 465.9820459 -128.41479492 465.99291992 C-139.29367495 465.75970567 -149.09742078 460.89400442 -156.9921875 453.5234375 C-167.80571535 441.93918305 -169.82913114 428.39625539 -169.4921875 413.12890625 C-169.01192362 404.20864448 -166.51030988 395.81562079 -163.94482422 387.30371094 C-163.03784579 384.29299826 -162.16716337 381.27373893 -161.3046875 378.25 C-158.40095514 368.11408578 -155.36799113 358.01621041 -152.32250977 347.92211914 C-150.64702092 342.35918518 -149.01178996 336.78541656 -147.39355469 331.20556641 C-146.22379967 327.17451742 -145.04554839 323.1459894 -143.86474609 319.11816406 C-143.34139251 317.32928062 -142.82066543 315.53962555 -142.30322266 313.74902344 C-141.64644828 311.48299187 -140.97597414 309.22153676 -140.30078125 306.9609375 C-139.9346875 305.71570313 -139.56859375 304.47046875 -139.19140625 303.1875 C-138.05078125 300.3359375 -138.05078125 300.3359375 -135.05078125 298.3359375 C-132.50848528 298.1646461 -130.07888644 298.10350816 -127.5390625 298.140625 C-126.81083786 298.1434549 -126.08261322 298.14628479 -125.33232117 298.14920044 C-123.00913988 298.16038493 -120.68634578 298.18548584 -118.36328125 298.2109375 C-116.78711495 298.22096956 -115.2109426 298.23009502 -113.63476562 298.23828125 C-109.77328858 298.26031854 -105.91210054 298.29483609 -102.05078125 298.3359375 C-100.97903362 301.98781832 -101.28666658 304.60026578 -102.05078125 308.3359375 C-102.71078125 308.3359375 -103.37078125 308.3359375 -104.05078125 308.3359375 C-104.16115723 309.27566406 -104.2715332 310.21539063 -104.38525391 311.18359375 C-105.09809982 316.14570964 -106.40875069 320.93538035 -107.69921875 325.7734375 C-107.96407074 326.77697266 -108.22892273 327.78050781 -108.50180054 328.81445312 C-111.47069719 340.01276461 -114.56736844 351.1757211 -117.67578125 362.3359375 C-119.57160164 369.15238261 -121.46282906 375.97005322 -123.34487915 382.79031372 C-123.9957843 385.13760753 -124.65619358 387.48199925 -125.3190918 389.82592773 C-129.3361811 403.67603564 -129.3361811 403.67603564 -127.0625 417.57421875 C-124.78474106 420.52895868 -122.60988065 421.6677927 -119.05078125 422.3359375 C-110.63020629 423.07817663 -103.62616288 420.63781011 -95.73828125 417.8984375 C-95.07637787 417.67285156 -94.41447449 417.44726562 -93.73251343 417.21484375 C-82.17457752 413.27187352 -70.98701392 408.78114593 -60.05078125 403.3359375 C-59.22481445 402.92843262 -58.39884766 402.52092773 -57.54785156 402.10107422 C-47.77417074 397.24041665 -38.58467795 392.19299836 -30.05078125 385.3359375 C-29.21804688 384.69785156 -28.3853125 384.05976562 -27.52734375 383.40234375 C-15.71393904 373.54541774 -7.70715789 358.09488844 -4.05078125 343.3359375 C-3.58226955 341.97804765 -3.10273506 340.62392001 -2.61328125 339.2734375 C-0.9481108 334.34694876 0.17420024 329.30277718 1.33227539 324.23974609 C2.55413435 318.92696877 3.90511799 313.66161364 5.32421875 308.3984375 C7.25690841 301.18202965 8.98713176 293.93444599 10.63671875 286.6484375 C13.26361529 275.06400883 16.11487844 263.54278028 19.01171875 252.0234375 C23.04507383 236.00811873 23.04507383 236.00811873 26.94921875 219.9609375 C27.13234619 219.19740967 27.31547363 218.43388184 27.50415039 217.6472168 C28.39671449 213.87131432 29.20437775 210.08917746 29.94921875 206.28125 C30.79436136 201.99528753 31.810299 197.80349971 32.94921875 193.5859375 C33.27921875 192.35359375 33.60921875 191.12125 33.94921875 189.8515625 C34.55038847 187.73807522 35.20204918 185.63670335 35.94921875 183.5703125 C36.79325957 180.84036797 37.32393725 178.3404815 37.79174805 175.53417969 C39.03140481 168.58556789 40.7416208 161.77009093 42.46875 154.9296875 C42.8129147 153.55609974 43.15679587 152.18244092 43.50041199 150.80871582 C44.21858017 147.9406165 44.9390321 145.0731049 45.66137695 142.20605469 C46.57217664 138.59091784 47.47897445 134.97479366 48.38426781 131.35827446 C55.13192926 104.40657636 55.13192926 104.40657636 58.47846985 91.97473145 C59.52308357 88.07361854 60.43442001 84.17633126 61.19921875 80.2109375 C61.94921875 76.3359375 61.94921875 76.3359375 62.94921875 75.3359375 C63.81066503 70.46876603 64.13843934 65.7117646 64.19921875 60.7734375 C64.225 59.51402344 64.25078125 58.25460937 64.27734375 56.95703125 C63.9247413 53.06581137 62.83525817 50.71591867 60.94921875 47.3359375 C60.94921875 46.6759375 60.94921875 46.0159375 60.94921875 45.3359375 C60.06131401 44.90558449 60.06131401 44.90558449 59.1554718 44.46653748 C56.94921875 43.3359375 56.94921875 43.3359375 53.64916992 41.24633789 C47.41371014 38.15402829 40.55265389 38.74007977 33.75 38.76953125 C32.26799635 38.76428473 30.78599603 38.75800451 29.30400085 38.75074768 C26.20486697 38.74037509 23.10619304 38.74485488 20.00708008 38.75952148 C16.07108439 38.77664023 12.13655818 38.75328536 8.20072651 38.71803188 C5.14021973 38.69586381 2.08005346 38.69754665 -0.9805088 38.7057972 C-2.4295188 38.70660742 -3.87855623 38.69992526 -5.32748985 38.68502617 C-19.10553581 38.56511726 -30.24177768 41.73033289 -40.62109375 50.90625 C-52.58451971 62.86967596 -57.58496206 79.19458715 -61.05078125 95.3359375 C-61.71533102 98.37806906 -62.38298018 101.41951819 -63.05078125 104.4609375 C-63.21819824 105.22857422 -63.38561523 105.99621094 -63.55810547 106.78710938 C-64.52064178 111.14414695 -65.59918839 115.42915913 -66.86328125 119.7109375 C-68.9759303 126.87047039 -70.79958413 134.09538899 -72.61328125 141.3359375 C-72.90630127 142.49915527 -73.19932129 143.66237305 -73.5012207 144.86083984 C-75.52608151 152.98654291 -77.34313486 161.13798892 -79.05078125 169.3359375 C-79.71078125 169.3359375 -80.37078125 169.3359375 -81.05078125 169.3359375 C-81.15390625 170.5321875 -81.25703125 171.7284375 -81.36328125 172.9609375 C-81.7991742 177.06345935 -82.6474837 180.95196655 -83.61328125 184.9609375 C-85.56815113 194.00221068 -87.5627225 204.19296293 -82.55078125 212.5234375 C-79.65609595 216.6001193 -75.76147344 218.87592232 -71.05078125 220.3359375 C-65.17818938 220.95436155 -59.32594401 220.94236403 -53.42578125 220.9453125 C-51.71084034 220.96030862 -49.9959138 220.97703876 -48.28100586 220.99542236 C-43.7897268 221.03894765 -39.29864252 221.05906191 -34.80718994 221.07415771 C-30.21509352 221.09378249 -25.62320581 221.13574634 -21.03125 221.17578125 C-12.03782503 221.25092259 -3.04444714 221.30131116 5.94921875 221.3359375 C5.94921875 221.9959375 5.94921875 222.6559375 5.94921875 223.3359375 C4.4453125 224.81640625 4.4453125 224.81640625 2.38671875 226.5234375 C-0.37616805 228.86873508 -3.01757882 231.24423155 -5.55078125 233.8359375 C-8.51043349 236.84225092 -11.60649265 239.62176836 -14.8046875 242.37109375 C-18.42141087 245.53494045 -21.92240713 248.82555699 -25.4375 252.1015625 C-30.96040188 256.82368489 -35.57653526 258.44668833 -42.79003906 258.48120117 C-44.15736176 258.49077095 -44.15736176 258.49077095 -45.55230713 258.50053406 C-46.52633484 258.50164688 -47.50036255 258.5027597 -48.50390625 258.50390625 C-49.51870056 258.50723465 -50.53349487 258.51056305 -51.57904053 258.51399231 C-53.72407581 258.51904796 -55.86911893 258.52140106 -58.01416016 258.52124023 C-61.2751991 258.5234204 -64.53589613 258.54157337 -67.796875 258.56054688 C-69.8867176 258.56348244 -71.9765618 258.56546614 -74.06640625 258.56640625 C-75.03233704 258.57359177 -75.99826782 258.58077728 -76.99346924 258.58818054 C-90.86157684 258.54201195 -102.85212156 254.23427293 -113.01953125 244.52734375 C-124.33780214 232.31667074 -128.59644675 217.49389339 -128.296875 201.0703125 C-127.39033436 187.31391801 -123.27280153 173.82446944 -119.86401367 160.52563477 C-119.01696877 157.20331666 -118.18472878 153.87758272 -117.35546875 150.55078125 C-114.50225247 139.11502986 -111.61605929 127.68756356 -108.72330761 116.2617588 C-107.82844144 112.72696581 -106.93482566 109.19186725 -106.04418945 105.65600586 C-94.95468054 61.64217037 -94.95468054 61.64217037 -89.23828125 51.3984375 C-88.80233643 50.59905762 -88.3663916 49.79967773 -87.91723633 48.97607422 C-84.52081469 42.88623867 -80.83244968 37.43471483 -76.05078125 32.3359375 C-75.59364746 31.83400879 -75.13651367 31.33208008 -74.66552734 30.81494141 C-64.16422986 19.35558313 -52.600132 11.06956015 -38.05078125 5.3359375 C-37.30570313 5.04074219 -36.560625 4.74554688 -35.79296875 4.44140625 C-24.18860558 0.21974725 -12.19164524 0.01149428 0 0 Z " fill="#151B23" transform="translate(1131.05078125,247.6640625)"/>
<path d="M0 0 C1.12253677 -0.00014603 2.24507355 -0.00029205 3.40162659 -0.0004425 C7.10256906 0.00025274 10.80346087 0.00802703 14.50439453 0.01586914 C17.07414726 0.0177347 19.64390035 0.01915795 22.21365356 0.02015686 C28.2802185 0.02358158 34.34676261 0.03145871 40.41331971 0.04150635 C47.32263563 0.05270034 54.23195243 0.05818621 61.14127517 0.06320179 C75.34826216 0.07364224 89.55523395 0.09122117 103.76220703 0.11352539 C100.99289236 3.65915374 98.3089299 6.46237029 94.76220703 9.23852539 C90.61228844 12.56066767 86.64629786 15.99107036 82.76220703 19.61352539 C78.10013204 23.95026896 73.29638074 28.05087192 68.33251953 32.04321289 C65.67736318 34.05805709 65.67736318 34.05805709 63.50488281 36.70532227 C58.44233393 40.88887428 51.51924243 39.77636004 45.30908203 39.71508789 C43.88428538 39.72059596 42.45949671 39.72872768 41.034729 39.73934937 C37.29015992 39.76218747 33.54617544 39.7580401 29.80157471 39.74554443 C23.82396689 39.7272175 17.84670598 39.73747494 11.86917877 39.77140427 C9.7963618 39.77744287 7.72430726 39.76432851 5.65155029 39.74942017 C-1.83940693 39.77079397 -8.23070878 40.40186844 -15.23779297 43.11352539 C-16.16591797 43.46672852 -17.09404297 43.81993164 -18.05029297 44.18383789 C-24.80464765 47.44040176 -29.94994202 51.83488672 -35.23779297 57.11352539 C-35.79208984 57.6562207 -36.34638672 58.19891602 -36.91748047 58.75805664 C-47.85947344 70.43937346 -52.55320803 86.23949642 -57.54071045 101.0458374 C-58.29891799 103.29483458 -59.06140242 105.54235694 -59.82421875 107.78979492 C-61.55494499 112.89451465 -63.27404295 118.00308351 -64.98779297 123.11352539 C-65.26215179 123.93070038 -65.53651062 124.74787537 -65.81918335 125.58981323 C-69.12400189 135.45594011 -72.26229003 145.35035776 -75.14404297 155.34863281 C-78.65018445 167.41742918 -82.59626193 179.35642958 -86.4543457 191.31591797 C-88.68346806 198.23807208 -90.8895061 205.16679761 -93.06591797 212.10571289 C-94.06055731 215.27503156 -95.05532877 218.44430869 -96.05029297 221.61352539 C-96.42408081 222.80461914 -96.42408081 222.80461914 -96.80541992 224.01977539 C-99.65192228 233.07874396 -102.54802793 242.11786378 -105.56591797 251.12133789 C-105.83832809 251.93411194 -106.11073822 252.74688599 -106.3914032 253.58428955 C-107.69143225 257.45571086 -108.99926309 261.32431608 -110.31713867 265.18969727 C-116.53954577 282.24353295 -116.53954577 282.24353295 -117.23779297 300.11352539 C-114.79375091 304.80608614 -111.13609662 306.5428228 -106.23779297 308.11352539 C-103.57365768 308.39633087 -101.14616013 308.54483466 -98.48925781 308.53344727 C-97.74833893 308.54191681 -97.00742004 308.55038635 -96.24404907 308.55911255 C-93.81209788 308.5823702 -91.38078415 308.58350695 -88.94873047 308.58227539 C-87.24109653 308.58938708 -85.53346495 308.59708753 -83.82583618 308.60534668 C-80.25003421 308.61876821 -76.67445287 308.62037227 -73.09863281 308.61450195 C-68.54953666 308.60862797 -64.00151594 308.63911198 -59.45262718 308.67961884 C-55.9246363 308.70566903 -52.39689778 308.70835733 -48.86882401 308.70472717 C-47.19372496 308.70640433 -45.51861244 308.71590923 -43.84360886 308.73387146 C-30.49906586 308.86116768 -18.8284756 307.07379039 -8.22998047 298.12524414 C-4.6449109 294.50502683 -1.86470596 290.46359691 0.76220703 286.11352539 C1.15972168 285.46222656 1.55723633 284.81092773 1.96679688 284.13989258 C5.19195358 278.6417798 7.19923447 273.24303468 8.88720703 267.11352539 C9.36760673 265.42563454 9.84937004 263.73813118 10.33251953 262.05102539 C10.56600098 261.22989258 10.79948242 260.40875977 11.04003906 259.56274414 C11.97464031 256.39306202 13.01878666 253.26643601 14.07910156 250.13696289 C17.02651515 241.40638254 19.54495377 232.5261171 22.09960938 223.67407227 C23.65393541 218.33006864 23.65393541 218.33006864 24.76220703 216.11352539 C25.78683632 207.31601541 25.78683632 207.31601541 22.63720703 199.42602539 C17.08282195 194.95836782 11.64071461 194.8266578 4.81933594 194.88647461 C3.94063843 194.88618256 3.06194092 194.8858905 2.15661621 194.8855896 C-0.73276828 194.88697717 -3.62189131 194.90251135 -6.51123047 194.91821289 C-8.52047586 194.92194506 -10.52972308 194.92479107 -12.53897095 194.92678833 C-17.81615258 194.93440873 -23.09322336 194.95404357 -28.37036133 194.97619629 C-33.75975037 194.99668903 -39.1491574 195.00579738 -44.53857422 195.01586914 C-55.10502905 195.03729094 -65.67140178 195.07140767 -76.23779297 195.11352539 C-74.84677299 191.4785262 -73.43375848 188.85004964 -70.92529297 185.86352539 C-66.39465401 180.36025384 -62.09083567 174.7001752 -57.80688477 169.00317383 C-50.96499012 159.97712397 -50.96499012 159.97712397 -47.23779297 158.11352539 C-38.30432517 156.90919715 -29.26618604 156.93567155 -20.26904297 156.91040039 C-19.57790909 156.90757301 -18.88677521 156.90474564 -18.17469788 156.90183258 C-14.52336262 156.88697896 -10.87206552 156.87766015 -7.22070312 156.87329102 C-3.48913183 156.86779788 0.24207626 156.84371224 3.97353363 156.81531906 C6.88206975 156.79654529 9.79052039 156.79147953 12.69911194 156.78995514 C14.07359319 156.78696594 15.44807433 156.77906713 16.82249451 156.76576996 C31.66486589 156.63230096 43.87076746 158.93522176 55.05126953 169.21899414 C64.09243203 178.78501813 68.27393524 189.67701864 68.01220703 202.73071289 C67.12529982 214.73167614 63.76442858 226.28285579 60.42822266 237.78735352 C59.74388228 240.17752766 59.08531853 242.57350693 58.43408203 244.97290039 C58.21671387 245.77099121 57.9993457 246.56908203 57.77539062 247.39135742 C57.3646157 248.90214169 56.95591955 250.4134935 56.54980469 251.92553711 C55.4069285 256.09156759 54.05457074 260.10087523 52.49902344 264.13012695 C51.77501686 266.07904328 51.14586058 268.03411915 50.54345703 270.02368164 C45.38099121 286.92291366 38.38860378 304.58709493 26.76220703 318.11352539 C26.01712891 319.02875977 25.27205078 319.94399414 24.50439453 320.88696289 C11.26405426 336.42626899 -7.07355784 345.34015749 -27.23779297 348.11352539 C-30.21121297 348.26503052 -33.18107393 348.28074508 -36.15795898 348.29052734 C-37.03528183 348.29709854 -37.91260468 348.30366974 -38.81651306 348.31044006 C-41.70824282 348.33008269 -44.59992078 348.34181727 -47.49169922 348.35180664 C-48.98160024 348.35791993 -48.98160024 348.35791993 -50.50160027 348.36415672 C-55.76205102 348.3849819 -61.02247599 348.39929733 -66.28295898 348.40869141 C-71.68716837 348.41973095 -77.09096322 348.45411293 -82.49502659 348.49386311 C-86.67578338 348.52014383 -90.85644321 348.52839351 -95.03727531 348.53197289 C-97.02776823 348.53681152 -99.01825761 348.54834667 -101.0086689 348.56701088 C-119.27041767 348.72757117 -133.51013204 346.21639927 -147.55029297 333.42602539 C-157.56032112 322.90213542 -160.69089581 308.86575692 -160.508255 294.81759644 C-160.2334599 291.05418246 -159.52870965 287.79782468 -158.52368164 284.16479492 C-158.34560313 283.51884935 -158.16752462 282.87290379 -157.9840498 282.20738411 C-155.93677389 274.8731746 -153.65369224 267.61286302 -151.35107422 260.35571289 C-150.88479888 258.87730439 -150.41883891 257.3987964 -149.95317078 255.92019653 C-148.73476844 252.05408338 -147.51256948 248.18918189 -146.28936768 244.32458496 C-144.35650239 238.21520468 -142.43003623 232.10380088 -140.50235748 225.99278259 C-139.7892827 223.73295816 -139.07555241 221.4733415 -138.36175537 219.21374512 C-135.35095223 209.67741528 -132.37965116 200.12963426 -129.42919922 190.57446289 C-126.04345458 179.62295932 -122.52632577 168.72493734 -118.86279297 157.86352539 C-118.35077387 156.33758447 -117.8390566 154.81154224 -117.32763672 153.28540039 C-115.65425835 148.29467035 -113.97956385 143.30439048 -112.29150391 138.31860352 C-110.81738987 133.94607503 -109.47326767 129.5612343 -108.23779297 125.11352539 C-106.35111531 118.45341141 -104.23934291 111.94178284 -101.92919922 105.41821289 C-101.56616699 104.39304565 -101.56616699 104.39304565 -101.19580078 103.34716797 C-100.67515798 101.88009686 -100.1523138 100.4138054 -99.62744141 98.94824219 C-98.32216196 95.28217468 -97.06559392 91.61545104 -95.93701172 87.89086914 C-86.51101884 57.10850231 -69.86054013 26.4537025 -40.96435547 10.28149414 C-27.54368642 3.2452714 -15.05793932 -0.05137534 0 0 Z " fill="#151B23" transform="translate(1404.23779296875,333.886474609375)"/>
<path d="M0 0 C1.12253677 -0.00014603 2.24507355 -0.00029205 3.40162659 -0.0004425 C7.10256906 0.00025274 10.80346087 0.00802703 14.50439453 0.01586914 C17.07414726 0.0177347 19.64390035 0.01915795 22.21365356 0.02015686 C28.2802185 0.02358158 34.34676261 0.03145871 40.41331971 0.04150635 C47.32263563 0.05270034 54.23195243 0.05818621 61.14127517 0.06320179 C75.34826216 0.07364224 89.55523395 0.09122117 103.76220703 0.11352539 C95.74943047 8.15821198 87.41561901 15.6657892 78.57080078 22.77758789 C74.86747007 25.8576877 71.33614781 29.10508539 67.82080078 32.39672852 C66.47953585 33.64820932 65.12141411 34.88155464 63.76220703 36.11352539 C63.17838257 36.65006241 62.59455811 37.18659943 61.99304199 37.73939514 C59.01440028 39.57415287 56.92699239 39.48539659 53.43994141 39.48242188 C52.1576062 39.48930527 50.875271 39.49618866 49.55407715 39.50328064 C48.52896278 39.49851369 48.52896278 39.49851369 47.48313904 39.49365044 C45.32850386 39.48450258 43.17473235 39.49480902 41.0201416 39.51026917 C34.89543996 39.55023992 28.77080654 39.55158979 22.64599609 39.54931641 C18.89346594 39.54926482 15.14139584 39.56867807 11.38899231 39.59864998 C9.28630969 39.60933779 7.18456002 39.59742212 5.08190918 39.58482361 C-11.37881827 39.71116079 -24.00348063 45.50113316 -35.92529297 56.71508789 C-48.24726765 69.4949738 -53.5999725 87.19914939 -59.11279297 103.67602539 C-59.7526723 105.56999145 -60.39256525 107.46395292 -61.0324707 109.35791016 C-66.30252095 125.0307227 -71.32978054 140.78104459 -76.30029297 156.55102539 C-76.65532898 157.67630646 -77.01036499 158.80158752 -77.37615967 159.96096802 C-81.15582451 171.96408828 -84.80896158 183.98748344 -88.21862793 196.10099792 C-90.01543109 202.44438082 -92.04163051 208.66853692 -94.30029297 214.86352539 C-97.32186632 223.36668889 -100.04458834 231.88956456 -102.51025391 240.56762695 C-104.10053549 246.1325452 -105.73219469 251.68531728 -107.36279297 257.23852539 C-107.69988281 258.40158203 -108.03697266 259.56463867 -108.38427734 260.76293945 C-110.03947771 266.39881475 -111.8003874 271.77078826 -114.23779297 277.11352539 C-117.01041448 284.26757349 -118.34444417 291.44291366 -117.23779297 299.11352539 C-115.15766253 303.18687274 -113.01894935 306.18025363 -108.54794312 307.68058777 C-105.41608284 308.26751938 -102.39962424 308.26569866 -99.21289062 308.29052734 C-98.5130304 308.29709854 -97.81317017 308.30366974 -97.09210205 308.31044006 C-94.77868525 308.33012441 -92.46533355 308.34183107 -90.15185547 308.35180664 C-89.35658825 308.35588217 -88.56132103 308.3599577 -87.7419548 308.36415672 C-83.5242616 308.38500693 -79.30660074 308.39930746 -75.08886719 308.40869141 C-70.76753869 308.41969255 -66.44673415 308.45402142 -62.12558937 308.49386311 C-58.77431397 308.52023833 -55.4231588 308.52840206 -52.07178879 308.53197289 C-50.48124062 308.53679314 -48.89069611 308.54827385 -47.30025101 308.56701088 C-32.23472444 308.73332061 -18.60666287 306.8243231 -7.12451172 296.14868164 C-1.6947692 290.49397804 1.61752734 284.24335472 4.76220703 277.11352539 C5.11927734 276.3362207 5.47634766 275.55891602 5.84423828 274.75805664 C8.79388431 267.93038993 10.59788396 260.76397299 12.53564453 253.60180664 C14.4879888 246.39890896 16.50359549 239.17954798 19.26220703 232.23852539 C22.6305795 223.47331305 25.95919529 213.53980792 24.76220703 204.11352539 C22.63197377 199.51222155 20.47025577 197.59636859 15.79231071 195.71201134 C12.12297619 194.63027095 8.50449072 194.72276312 4.70581055 194.77294922 C3.82696701 194.77251114 2.94812347 194.77207306 2.04264832 194.7716217 C-0.84142837 194.77369973 -3.72491248 194.79698401 -6.60888672 194.82055664 C-8.61670108 194.8261561 -10.62451955 194.83042455 -12.63233948 194.8334198 C-17.90135128 194.84484095 -23.17011262 194.87428466 -28.43902588 194.90753174 C-33.82178357 194.93829151 -39.20458198 194.95193775 -44.58740234 194.96704102 C-55.13764223 194.99915696 -65.68769672 195.05032027 -76.23779297 195.11352539 C-75.37156648 190.95985292 -73.50492517 188.58078095 -70.86279297 185.23852539 C-70.42233643 184.67842773 -69.98187988 184.11833008 -69.52807617 183.54125977 C-68.58864891 182.3475179 -67.64659332 181.15584052 -66.70214844 179.96606445 C-65.22330425 178.09519588 -63.76180181 176.21191496 -62.30419922 174.32446289 C-61.34476722 173.08732595 -60.38513703 171.85034266 -59.42529297 170.61352539 C-58.9820166 170.03876465 -58.53874023 169.46400391 -58.08203125 168.87182617 C-50.45186129 159.11150745 -50.45186129 159.11150745 -45.23779297 157.11352539 C-41.99023438 156.84609985 -41.99023438 156.84609985 -38.08935547 156.82299805 C-37.37652908 156.81628082 -36.6637027 156.8095636 -35.92927551 156.80264282 C-33.57371014 156.78365717 -31.2184301 156.77973714 -28.86279297 156.77758789 C-27.21573777 156.77115592 -25.5686837 156.76442727 -23.92163086 156.75741577 C-20.46497963 156.74543844 -17.00842832 156.74173497 -13.55175781 156.74291992 C-9.15172884 156.74312212 -4.75235295 156.71592528 -0.35247803 156.6813755 C3.05363825 156.65897277 6.45960133 156.65508658 9.86578369 156.65613937 C11.48588288 156.65379942 13.10598735 156.64506785 14.72601318 156.62947464 C29.64676115 156.49941 44.62905171 159.27334785 55.76220703 170.11352539 C58.34477936 173.3079144 60.60369743 176.62001341 62.76220703 180.11352539 C63.20306641 180.81864258 63.64392578 181.52375977 64.09814453 182.25024414 C70.36475793 194.62791671 67.42072125 211.89038437 63.53710938 224.54516602 C62.59563472 227.66561762 61.72093529 230.80238598 60.84423828 233.94165039 C42.20750797 300.17404854 42.20750797 300.17404854 23.76220703 321.11352539 C22.59431641 322.44770508 22.59431641 322.44770508 21.40283203 323.80883789 C7.61155308 338.54657716 -11.74144299 347.46211917 -31.9458313 348.40084839 C-37.38782727 348.56087971 -42.82907259 348.55806097 -48.27294922 348.54711914 C-50.2844612 348.55169205 -52.29597163 348.55700087 -54.30747986 348.56300354 C-58.50054315 348.57188402 -62.69341543 348.56956838 -66.88647461 348.55957031 C-72.22773987 348.54806752 -77.56834526 348.56833851 -82.90952396 348.59748745 C-87.05598551 348.61593319 -91.20229117 348.6155407 -95.34878349 348.60984993 C-97.31692877 348.60969784 -99.28508537 348.61564757 -101.25319099 348.6281414 C-118.90492798 348.7244696 -133.54628912 346.47142899 -146.98779297 333.92602539 C-156.70674942 323.70910121 -160.86065727 311.31682258 -160.86328125 297.4753418 C-160.53491109 286.19042199 -156.8193092 275.71989829 -153.23779297 265.11352539 C-152.6953053 263.47186938 -152.15358404 261.82995982 -151.61279297 260.18774414 C-150.86859966 257.94078366 -150.11956628 255.69593389 -149.35717773 253.45507812 C-147.79182411 248.85191658 -146.37951229 244.22949625 -145.05029297 239.55102539 C-142.59467884 230.94063481 -139.7174413 222.4724502 -136.86279297 213.98852539 C-133.25528192 203.26708259 -129.76619641 192.5290916 -126.52612305 181.68945312 C-124.64233885 175.39426828 -122.6289522 169.16148637 -120.47607422 162.95336914 C-119.32643587 159.51480676 -118.35205937 156.03201886 -117.36669922 152.54321289 C-113.92698133 140.41351317 -109.95280591 128.45258232 -106.01367188 116.47808838 C-105.20553797 114.01522529 -104.40298141 111.55059039 -103.60107422 109.08569336 C-85.5824041 53.81943017 -85.5824041 53.81943017 -69.23779297 34.11352539 C-68.59076416 33.32848633 -68.59076416 33.32848633 -67.93066406 32.52758789 C-50.74511322 11.94759272 -26.85612993 -0.09162893 0 0 Z " fill="#151B23" transform="translate(583.23779296875,333.886474609375)"/>
<path d="M0 0 C0.88528118 -0.00199105 1.77056236 -0.0039821 2.68267024 -0.00603348 C3.66125447 -0.00312064 4.63983871 -0.0002078 5.64807701 0.00279331 C6.68292461 0.00193889 7.7177722 0.00108446 8.78397882 0.00020415 C12.27412638 -0.00145149 15.76422656 0.00407211 19.25436974 0.00952244 C21.74724387 0.00980432 24.24011809 0.00964656 26.73299217 0.00907993 C32.11158045 0.00885174 37.49015379 0.01170006 42.86873817 0.01731777 C50.64532661 0.02543483 58.42190918 0.0280482 66.19850139 0.02930576 C78.81462098 0.03149596 91.43073412 0.03815517 104.0468502 0.04760838 C116.30433685 0.05678333 128.56182175 0.06386376 140.81931114 0.06811619 C141.57449558 0.06837891 142.32968001 0.06864164 143.10774882 0.06891232 C146.89617757 0.07021733 150.68460633 0.07148104 154.4730351 0.07272422 C185.91626462 0.08309583 217.35948612 0.10078745 248.80270958 0.12304783 C248.80270958 3.12304783 248.80270958 3.12304783 247.40427208 4.63086033 C246.75200645 5.1645322 246.09974083 5.69820408 245.42770958 6.24804783 C244.68907677 6.86808689 243.95044395 7.48812595 243.18942833 8.12695408 C242.40181114 8.78566502 241.61419395 9.44437595 240.80270958 10.12304783 C234.19148711 15.94694433 227.74500946 21.94653448 221.33176231 27.98657322 C220.11486838 29.12895344 218.88722175 30.25998156 217.64938927 31.37963963 C215.76374543 33.10249763 215.76374543 33.10249763 214.08884239 35.09497166 C209.90050932 39.56301666 206.81453449 40.59072949 200.67770958 40.80664158 C198.05183426 40.76045784 195.42638703 40.67746979 192.80270958 40.56054783 C191.44211317 40.52537396 190.08142878 40.49344563 188.72067833 40.4648447 C185.41241914 40.38272479 182.10871667 40.2679085 178.80270958 40.12304783 C178.67110939 40.71664097 178.5395092 41.31023411 178.40392113 41.92181492 C177.46025534 45.37688525 175.62618978 48.38346513 173.92380333 51.51367283 C168.75049094 61.19190224 163.81170717 70.9821489 158.90036583 80.79492283 C158.29742258 81.99951397 158.29742258 81.99951397 157.68229866 83.22844028 C155.59209518 87.40593262 153.50396219 91.58445476 151.41721153 95.76367283 C149.29767363 100.00842915 147.1745284 104.25136921 145.0504055 108.49383259 C134.5979193 129.32454523 134.5979193 129.32454523 124.46286583 150.31054783 C119.3495137 161.12543984 113.99514706 171.81783784 108.63864708 182.51367283 C108.17782423 183.43388973 107.71700138 184.35410664 107.2422142 185.3022089 C103.89020716 191.99390751 100.53432247 198.68365865 97.17770958 205.37304783 C93.80708529 212.09042413 90.43789811 218.808514 87.07210732 225.52831364 C85.74851531 228.16916307 84.42246619 230.80876778 83.09625816 233.44830418 C78.58707699 242.44015777 74.16632321 251.46442818 69.91614914 260.58206654 C66.69234083 267.46923442 63.14076233 274.16674987 59.54489708 280.86523533 C57.4575374 284.807684 55.49298766 288.79778673 53.56052208 292.81836033 C52.99945763 293.97585789 52.43839317 295.13335545 51.86032677 296.32592869 C50.76657968 298.59102621 49.68574158 300.86241859 48.62009239 303.14087009 C45.24983517 310.08549721 41.54797047 315.00354466 35.80270958 320.12304783 C34.80896324 321.14616062 34.80896324 321.14616062 33.79514122 322.18994236 C31.95256768 323.97765186 30.27100241 325.2318615 28.07224083 326.53320408 C27.3605172 326.95996433 26.64879356 327.38672459 25.91550255 327.82641697 C25.15640587 328.27493015 24.39730919 328.72344334 23.61520958 329.18554783 C17.39967925 332.91801472 11.24850671 336.72178255 5.17770958 340.68554783 C-2.88008562 345.9407961 -11.02303127 351.05126658 -19.19729042 356.12304783 C-20.36655026 352.6152683 -19.75974736 351.64602953 -18.20360756 348.4422617 C-17.7286837 347.50307896 -17.7286837 347.50307896 -17.24416542 346.54492283 C-16.75437706 345.54676548 -16.75437706 345.54676548 -16.25469398 344.52844334 C-15.16130632 342.30537166 -14.05418413 340.08942159 -12.94729042 337.87304783 C-12.16777812 336.29380283 -11.38931497 334.71403959 -10.6118412 333.13379002 C-8.97238736 329.80386432 -7.32816618 326.47635456 -5.68068886 323.15039158 C-3.31527591 318.36938956 -0.97398935 313.57697018 1.35739708 308.77929783 C1.73097847 308.01052311 2.10455986 307.24174839 2.4894619 306.44967747 C3.25031431 304.88362282 4.0110917 303.31753172 4.77179527 301.75140476 C13.19501404 284.42017126 21.67182968 267.11499471 30.14890099 249.81005955 C34.9337234 240.04070336 39.70928306 230.26702249 44.46286583 220.48242283 C45.37177087 218.61310461 46.28070587 216.74380096 47.18967247 214.87451267 C48.8780008 211.40229832 50.56290655 207.92845327 52.24582481 204.45361423 C56.12619201 196.46270315 60.09061312 188.56203324 64.39865685 180.79077244 C66.09911411 177.55987407 67.37947646 174.25743703 68.67746544 170.85034275 C70.04251612 167.54182005 71.62683611 164.36367204 73.24411583 161.17382908 C73.96502078 159.74200495 74.68579823 158.31011662 75.40646935 156.87817478 C75.98644173 155.72824543 75.98644173 155.72824543 76.57813072 154.55508518 C78.7671134 150.20772313 80.93993576 145.85228063 83.11520958 141.49804783 C84.05524414 139.6178047 84.99534916 137.73759679 85.93552208 135.85742283 C86.40764122 134.91318455 86.87976036 133.96894627 87.36618614 132.9960947 C91.66989708 124.38867283 91.66989708 124.38867283 93.08684349 121.55488682 C94.02005279 119.68839718 94.95314867 117.82185084 95.88612938 115.95524693 C97.89257275 111.94125924 99.89982576 107.92770081 101.91330528 103.91723728 C106.90056399 93.97812676 111.80174003 83.99791418 116.67648888 74.00317478 C117.99751274 71.29557914 119.32096583 68.58917956 120.64450645 65.88281345 C121.50337797 64.12311984 122.36210696 62.36335666 123.22067833 60.60351658 C123.60725105 59.81365864 123.99382378 59.0238007 124.39211082 58.21000767 C127.30759481 52.22364817 130.0444783 46.19115664 132.80270958 40.12304783 C79.34270958 40.12304783 25.88270958 40.12304783 -29.19729042 40.12304783 C-28.25542952 35.41374334 -27.34730188 33.38287781 -24.81057167 29.48242283 C-24.11898964 28.41121189 -23.42740761 27.34000095 -22.71486855 26.23632908 C-21.97997932 25.11514564 -21.24495253 23.99405236 -20.50979042 22.87304783 C-19.80145058 21.77863377 -19.09311073 20.6842197 -18.36330605 19.55664158 C-16.31920387 16.4046096 -14.25933376 13.26336055 -12.19729042 10.12304783 C-11.60738319 9.20974705 -11.01747597 8.29644627 -10.40969276 7.3554697 C-9.87940468 6.54142673 -9.34911659 5.72738377 -8.80275917 4.88867283 C-8.11476234 3.82567966 -8.11476234 3.82567966 -7.41286659 2.74121189 C-5.28707413 -0.0886239 -3.33681086 -0.00165025 0 0 Z " fill="#151B23" transform="translate(740.1972904205322,333.8769521713257)"/>
</svg>
